<?xml version="1.0" encoding="UTF-8" standalone="no"?>
<svg
   xmlns:dc="http://purl.org/dc/elements/1.1/"
   xmlns:cc="http://creativecommons.org/ns#"
   xmlns:rdf="http://www.w3.org/1999/02/22-rdf-syntax-ns#"
   xmlns:svg="http://www.w3.org/2000/svg"
   xmlns="http://www.w3.org/2000/svg"
   xmlns:sodipodi="http://sodipodi.sourceforge.net/DTD/sodipodi-0.dtd"
   xmlns:inkscape="http://www.inkscape.org/namespaces/inkscape"
   width="400"
   height="400"
   viewBox="0 0 400 400"
   version="1.1"
   id="svg6"
   sodipodi:docname="logo.svg"
   style="fill:none"
   inkscape:version="0.92.3 (2405546, 2018-03-11)">
  <metadata
     id="metadata12">
    <rdf:RDF>
      <cc:Work
         rdf:about="">
        <dc:format>image/svg+xml</dc:format>
        <dc:type
           rdf:resource="http://purl.org/dc/dcmitype/StillImage" />
        <dc:title></dc:title>
      </cc:Work>
    </rdf:RDF>
  </metadata>
  <defs
     id="defs10" />
  <sodipodi:namedview
     pagecolor="#ffffff"
     bordercolor="#666666"
     borderopacity="1"
     objecttolerance="10"
     gridtolerance="10"
     guidetolerance="10"
     inkscape:pageopacity="0"
     inkscape:pageshadow="2"
     inkscape:window-width="1920"
     inkscape:window-height="1018"
     id="namedview8"
     showgrid="false"
     inkscape:zoom="0.89028213"
     inkscape:cx="159.5"
     inkscape:cy="47.5"
     inkscape:window-x="-8"
     inkscape:window-y="-8"
     inkscape:window-maximized="1"
     inkscape:current-layer="svg6" />
  <path
     d="M 390.77931,387.45634 C 384.85345,296.454 297.26097,14.753521 203.74342,14.753521 c -93.51755,0 -199.3551092,288.736669 -187.035335,372.702819 3.485032,23.75191 32.513488,2.25112 72.282181,-27.20474 44.827324,-33.20328 103.300694,-76.5143 154.219844,-76.5143 63.66477,0 108.82135,62.04031 131.33557,92.97217 11.46651,15.75464 17.05953,23.43858 16.23363,10.74687 z M 313.51179,204.25383 c 0,34.17452 -27.70327,61.87778 -61.87779,61.87778 -34.17374,0 -61.87779,-27.70326 -61.87779,-61.87778 0,-34.17374 27.70405,-61.87777 61.87779,-61.87777 34.17452,0 61.87779,27.70403 61.87779,61.87777 z"
     id="path4"
     inkscape:connector-curvature="0"
     style="clip-rule:evenodd;fill:#ffffff;fill-rule:evenodd;stroke-width:7.81364059;opacity:0.08273381" />
</svg>
