<svg xmlns="http://www.w3.org/2000/svg" xmlns:xlink="http://www.w3.org/1999/xlink" viewBox="0 0 100 125" version="1.1" x="0px" y="0px"><title>Artboard Copy</title><desc>Created with Sketch.</desc><g stroke="none" stroke-width="1" fill="none" fill-rule="evenodd"><g fill="#eee"><path d="M33,46.25 L33,49.4979981 C33,58.4929969 39.7768615,65.8951346 48.5,66.887028 L48.5,74.5 L52.5,74.5 L52.5,66.886994 C61.2247768,65.8946111 68,58.4878289 68,49.4979981 L68,46.25 L68,49.5 L63.9999999,49.5 C63.9989186,56.956941 57.9563905,63 50.5,63 C43.0427553,63 37.0010809,56.9596605 37.0000001,49.5 L33,49.5 L33,46.25 Z M50,100 C22.3857625,100 0,77.6142375 0,50 C0,22.3857625 22.3857625,0 50,0 C77.6142375,0 100,22.3857625 100,50 C100,77.6142375 77.6142375,100 50,100 Z M41.5,33.9989419 L41.5,48.0010581 C41.5,52.9795796 45.5294373,57 50.5,57 C55.4716556,57 59.5,52.9710365 59.5,48.0010581 L59.5,33.9989419 C59.5,29.0204204 55.4705627,25 50.5,25 C45.5283444,25 41.5,29.0289635 41.5,33.9989419 Z"/></g></g></svg>